<?xml version="1.0" encoding="UTF-8" standalone="no"?><!DOCTYPE svg PUBLIC "-//W3C//DTD SVG 1.1//EN" "http://www.w3.org/Graphics/SVG/1.1/DTD/svg11.dtd"><svg width="100%" height="100%" viewBox="0 0 24 24" version="1.1" xmlns="http://www.w3.org/2000/svg" xmlns:xlink="http://www.w3.org/1999/xlink" xml:space="preserve" style="fill-rule:evenodd;clip-rule:evenodd;stroke-linejoin:round;stroke-miterlimit:1.41421;"><g id="icon"><path id="arm-left" d="M1.201,8.798c-0.665,0 -1.201,0.536 -1.201,1.201l0,5.603c0,0.664 0.536,1.201 1.201,1.201c0.664,0 1.2,-0.537 1.2,-1.201l0,-5.603c0,-0.665 -0.536,-1.201 -1.2,-1.201Z"/><path id="arm-right" d="M13.608,9.998c-0.001,0.665 0.536,1.201 1.2,1.202l5.603,0.003c0.665,0 1.201,-0.536 1.201,-1.2c0.001,-0.665 -0.535,-1.201 -1.2,-1.202l-5.603,-0.003c-0.664,0 -1.201,0.536 -1.201,1.2Z"/><path id="head" d="M12.807,7.998l-9.605,0c0,-1.593 0.776,-2.994 1.961,-3.867l-1.049,-1.048c-0.16,-0.16 -0.16,-0.408 0,-0.568c0.16,-0.161 0.409,-0.161 0.569,0l1.192,1.184c0.641,-0.32 1.361,-0.504 2.13,-0.504c0.76,0 1.48,0.184 2.113,0.504l1.185,-1.184c0.16,-0.161 0.408,-0.161 0.568,0c0.16,0.16 0.16,0.408 0,0.568l-1.041,1.04c1.201,0.873 1.977,2.282 1.977,3.875Zm-6.731,-2.369c0.229,0 0.415,0.186 0.415,0.415c0,0.229 -0.186,0.416 -0.415,0.416c-0.229,0 -0.415,-0.187 -0.415,-0.416c0,-0.229 0.186,-0.415 0.415,-0.415Zm3.916,0c0.23,0 0.416,0.186 0.416,0.415c0,0.229 -0.186,0.416 -0.416,0.416c-0.229,0 -0.415,-0.187 -0.415,-0.416c0,-0.229 0.186,-0.415 0.415,-0.415Z"/><g id="ruler"><path d="M23.067,11.978l-8.394,0c-0.513,0 -0.933,0.419 -0.933,0.932l0,3.731c0,0.513 0.42,0.933 0.933,0.933l8.394,0c0.513,0 0.933,-0.42 0.933,-0.933l0,-3.731c0,-0.513 -0.42,-0.932 -0.933,-0.932Zm0,4.663l-8.394,0l0,-3.731l1.151,0l0,1.866l0.933,0l0,-1.866l1.618,0l0,1.866l0.933,0l0,-0.801l0,-1.065l1.504,0l0,1.866l0.933,0l0,-1.866l1.322,0l0,3.731Z" style="fill-rule:nonzero;"/><text x="20.211px" y="16.347px" style="font-family:'RobotoMono-Bold', 'Roboto Mono';font-weight:700;font-size:1.791px;">30</text></g><g id="body"><path d="M12.807,8.798l0,8.005c0,0.44 -0.36,0.8 -0.8,0.8l-0.801,0l0,2.802c0,0.019 0,0.037 -0.001,0.056c-0.029,0.638 -0.554,1.145 -1.199,1.145c-0.665,0 -1.201,-0.537 -1.201,-1.201l0,-2.802l-1.601,0l0,2.802c0,0.664 -0.536,1.201 -1.201,1.201c-0.664,0 -1.2,-0.537 -1.2,-1.201l0,-2.802l-0.801,0c-0.44,0 -0.8,-0.36 -0.8,-0.8l0,-8.005l9.605,0Zm-5.76,5.804l0,-2.768l1.013,0l0,-0.516l-2.648,0l0,0.516l0.999,0l0,2.768l0.636,0Zm2.889,-0.51l0,-1.931l-1.328,0l0,0.512l0.695,0l0,1.419l-0.695,0l0,0.51l1.989,0l0,-0.51l-0.661,0Zm-0.678,-2.556c0,-0.048 0.008,-0.092 0.025,-0.134c0.018,-0.041 0.042,-0.076 0.074,-0.106c0.031,-0.029 0.069,-0.052 0.114,-0.069c0.044,-0.016 0.093,-0.024 0.147,-0.024c0.112,0 0.2,0.031 0.265,0.093c0.066,0.063 0.099,0.143 0.099,0.24c0,0.098 -0.033,0.178 -0.099,0.241c-0.065,0.062 -0.153,0.093 -0.265,0.093c-0.054,0 -0.103,-0.008 -0.147,-0.025c-0.045,-0.016 -0.083,-0.039 -0.114,-0.068c-0.032,-0.03 -0.056,-0.065 -0.074,-0.106c-0.017,-0.042 -0.025,-0.086 -0.025,-0.135Z"/></g></g></svg>